<svg width="215" height="93" viewBox="0 0 215 93" fill="none" xmlns="http://www.w3.org/2000/svg">
<g clip-path="url(#clip0_109_5041)">
<mask id="mask0_109_5041" style="mask-type:luminance" maskUnits="userSpaceOnUse" x="0" y="0" width="215" height="93">
<path d="M215 0H0V93H215V0Z" fill="white"/>
</mask>
<g mask="url(#mask0_109_5041)">
<path d="M31.0601 66.9961V60.4951H6.44549C4.73604 60.4951 3.0966 61.1755 1.88784 62.3858C0.679075 63.5966 0 65.2386 0 66.9509V73.5422C0 75.2546 0.679075 76.8965 1.88784 78.1073C3.0966 79.3177 4.73604 79.998 6.44549 79.998H25.9623V86.499H0.450734V93H26.0073C26.8538 93 27.6919 92.8329 28.4739 92.5083C29.2559 92.1842 29.9664 91.7088 30.565 91.1093C31.1635 90.5097 31.6383 89.7978 31.9622 89.0145C32.2861 88.2312 32.4528 87.392 32.4528 86.5441V79.9529C32.4528 78.2405 31.7738 76.5986 30.565 75.3878C29.3562 74.1774 27.7168 73.4971 26.0073 73.4971H6.49057V66.9961H31.0601Z" fill="white"/>
<path d="M37.9743 66.9509V86.5441C37.9737 87.3915 38.1399 88.2312 38.4633 89.0145C38.7867 89.7978 39.2611 90.5093 39.8592 91.1088C40.4574 91.7084 41.1677 92.1842 41.9494 92.5083C42.7311 92.8329 43.5691 93 44.4153 93H64.0042C64.8507 93 65.6886 92.8329 66.4706 92.5083C67.2526 92.1842 67.9634 91.7088 68.562 91.1093C69.1606 90.5097 69.6352 89.7978 69.9588 89.0145C70.2829 88.2312 70.4497 87.392 70.4497 86.5441V66.9509C70.4497 66.1031 70.2829 65.2639 69.9588 64.4806C69.6352 63.6973 69.1606 62.9854 68.562 62.3858C67.9634 61.7863 67.2526 61.3109 66.4706 60.9868C65.6886 60.6622 64.8507 60.4951 64.0042 60.4951H44.4153C43.5691 60.4951 42.7311 60.6622 41.9494 60.9868C41.1677 61.3109 40.4574 61.7867 39.8592 62.3863C39.2611 62.9858 38.7867 63.6973 38.4633 64.4806C38.1399 65.2639 37.9737 66.1036 37.9743 66.9509ZM63.9366 86.499H44.4649V66.9961H63.9366V86.499Z" fill="white"/>
<path d="M107.013 66.9509V93H113.504V82.3185H132.516V93H139.006V66.9509C139.007 66.1031 138.84 65.2634 138.517 64.4797C138.193 63.6964 137.719 62.9844 137.12 62.3845C136.521 61.7849 135.81 61.3095 135.028 60.9854C134.246 60.6613 133.407 60.4947 132.561 60.4951H113.459C112.612 60.4951 111.774 60.6622 110.992 60.9868C110.21 61.3109 109.499 61.7863 108.901 62.3858C108.302 62.9854 107.828 63.6973 107.504 64.4806C107.18 65.2639 107.013 66.1031 107.013 66.9509ZM132.516 75.8175H113.504V66.9961H132.516V75.8175Z" fill="white"/>
<path d="M182.998 66.951V93H189.488V82.3185H208.509V93H215V66.951C215 65.2386 214.321 63.5966 213.112 62.3858C211.903 61.1755 210.264 60.4951 208.555 60.4951H189.457C188.61 60.4933 187.77 60.659 186.986 60.9827C186.203 61.3064 185.49 61.7818 184.891 62.3813C184.291 62.9808 183.815 63.6932 183.49 64.4774C183.165 65.2616 182.998 66.1022 182.998 66.951ZM208.496 75.8176H189.502V66.9961H208.509L208.496 75.8176Z" fill="white"/>
<path d="M170.742 60.4951V86.499H168.146L158.843 63.2039C158.525 62.4048 157.975 61.7195 157.264 61.2364C156.552 60.7533 155.713 60.4951 154.854 60.4951H149.076C147.936 60.4951 146.844 60.9484 146.038 61.7551C145.233 62.5619 144.78 63.6562 144.78 64.7975V93H151.271V66.9961H153.867L163.166 90.2912C163.482 91.0903 164.032 91.7761 164.742 92.2591C165.453 92.7417 166.291 93 167.15 93H172.929C174.068 93 175.16 92.5467 175.966 91.74C176.771 90.9332 177.224 89.8389 177.224 88.6976V60.4951H170.742Z" fill="white"/>
<path d="M82.6916 86.499V60.4951H76.201V86.5441C76.201 87.392 76.3678 88.2312 76.6919 89.0145C77.0155 89.7978 77.4906 90.5097 78.0887 91.1093C78.6873 91.7088 79.3981 92.1842 80.1801 92.5083C80.9622 92.8329 81.8001 93 82.6465 93H102.163V86.499H82.6916Z" fill="white"/>
<path d="M129.137 30.6109L121.995 38.2965C121.839 38.4634 121.652 38.5965 121.443 38.6875C121.234 38.7785 121.009 38.8254 120.781 38.8252H86.9195C86.7577 38.8252 86.5999 38.7779 86.4647 38.689C86.3295 38.6001 86.2231 38.4736 86.1586 38.3249C86.0946 38.1762 86.0748 38.0119 86.1023 37.8522C86.1294 37.6924 86.2028 37.5442 86.3133 37.4257L93.4614 29.7401C93.6165 29.5736 93.8035 29.4408 94.0118 29.3498C94.22 29.2589 94.4445 29.2118 94.6712 29.2114H128.531C128.693 29.2114 128.851 29.2587 128.986 29.3476C129.121 29.4365 129.228 29.5631 129.292 29.7117C129.356 29.8604 129.376 30.0247 129.348 30.1844C129.321 30.3442 129.248 30.4924 129.137 30.6109ZM121.995 15.1344C121.839 14.9675 121.652 14.8344 121.443 14.7434C121.234 14.6525 121.009 14.6056 120.781 14.6057H86.9195C86.7577 14.6057 86.5999 14.6531 86.4647 14.7419C86.3295 14.8308 86.2231 14.9574 86.1586 15.106C86.0946 15.2547 86.0748 15.419 86.1023 15.5788C86.1294 15.7385 86.2028 15.8867 86.3133 16.0053L93.4614 23.6908C93.6165 23.8573 93.8035 23.9901 94.0118 24.0811C94.22 24.1721 94.4445 24.2192 94.6712 24.2195H128.531C128.693 24.2195 128.851 24.1722 128.986 24.0833C129.121 23.9944 129.228 23.8679 129.292 23.7192C129.356 23.5705 129.376 23.4062 129.348 23.2465C129.321 23.0868 129.248 22.9385 129.137 22.82L121.995 15.1344ZM86.9195 9.61385H120.781C121.009 9.61399 121.234 9.56713 121.443 9.47616C121.652 9.38519 121.839 9.25206 121.995 9.08511L129.137 1.39956C129.248 1.28104 129.321 1.1328 129.348 0.97306C129.376 0.813312 129.356 0.649014 129.292 0.500354C129.228 0.35169 129.121 0.225141 128.986 0.136251C128.851 0.0473623 128.693 5.47413e-06 128.531 0H94.6712C94.4445 0.000387545 94.22 0.0475162 94.0118 0.138468C93.8035 0.229421 93.6165 0.36226 93.4614 0.528764L86.3151 8.21429C86.2046 8.33271 86.1316 8.48079 86.1041 8.64038C86.0766 8.79992 86.096 8.96407 86.1605 9.11269C86.2245 9.26126 86.3304 9.38781 86.4652 9.47688C86.6004 9.56591 86.7581 9.61349 86.9195 9.61385Z" fill="url(#paint0_linear_109_5041)"/>
</g>
</g>
<defs>
<linearGradient id="paint0_linear_109_5041" x1="89.7429" y1="39.7506" x2="125.381" y2="-0.29443" gradientUnits="userSpaceOnUse">
<stop offset="0.08" stop-color="#9945FF"/>
<stop offset="0.3" stop-color="#8752F3"/>
<stop offset="0.5" stop-color="#5497D5"/>
<stop offset="0.6" stop-color="#43B4CA"/>
<stop offset="0.72" stop-color="#28E0B9"/>
<stop offset="0.97" stop-color="#19FB9B"/>
</linearGradient>
<clipPath id="clip0_109_5041">
<rect width="215" height="93" fill="white"/>
</clipPath>
</defs>
</svg>
