<svg xmlns="http://www.w3.org/2000/svg" width="285" height="57" viewBox="0 0 285 57" fill="none">
<path d="M75.285 13.3509H85.9566L79.9792 41.7016C78.8817 47.0712 76.7878 50.1445 73.6133 52.3227C70.4025 54.1859 66.7155 55.0665 63.0093 54.8555C55.9512 54.8555 49.1799 51.9006 48.5046 44.7242H59.2437C59.5814 46.4128 61.135 47.3752 63.4989 47.3752C66.6903 47.3752 68.1593 45.4503 68.8179 42.4278L69.4595 39.3039H69.2231C68.2808 40.3398 67.1378 41.1732 65.8636 41.7537C64.5892 42.3342 63.2104 42.6497 61.8104 42.681C55.5966 42.681 50.6658 37.7335 50.7672 30.4896C50.9024 22.0469 56.4069 12.456 65.6435 12.456C67.3938 12.3381 69.1412 12.7238 70.6793 13.5676C72.2174 14.4113 73.4816 15.678 74.3225 17.2177H74.5083L75.285 13.3509ZM66.1161 34.7617C70.2194 34.7617 72.4989 30.0339 72.5664 25.9644C72.5664 23.2459 71.5026 20.4597 68.362 20.4597C64.073 20.4597 61.8948 25.2383 61.8273 29.3414C61.8273 32.1107 62.8911 34.7617 66.0317 34.7617M185.92 35.6736C185.92 37.4803 184.365 38.2064 182.322 38.2064C178.945 38.2064 177.814 36.5178 177.797 34.1539H167.176C166.99 42.9681 174.859 45.1463 181.85 45.1463C190.782 45.1463 196.574 41.2795 196.693 33.5629C196.693 27.3996 191.441 25.5254 186.275 24.3264C182.306 23.4147 180.567 22.7561 180.583 21.2533C180.601 19.7505 182.374 19.1426 184.113 19.1426C186.291 19.1426 187.776 19.9193 187.929 21.9119H198.246C198.128 14.5497 191.491 12.3885 184.737 12.3885C176.531 12.3885 170.131 16.12 170.03 23.1782C170.03 28.7335 173.778 30.7767 179.435 32.229C183.065 33.1914 185.952 33.4953 185.92 35.6736ZM264.825 17.9269H264.639C264.18 16.264 263.165 14.8084 261.765 13.8009C260.364 12.7936 258.662 12.2952 256.939 12.3885C252.347 12.3885 249.545 14.668 246.893 18.1126H246.708L247.687 13.3509H236.946L230.513 44.1163H241.743L245.12 27.5178C245.896 23.9043 247.737 21.3715 250.524 21.3715C253.31 21.3715 253.681 23.6003 253.107 26.319L249.392 44.1163H260.62L263.999 27.5178C264.774 23.668 266.616 21.3715 269.4 21.3715C272.187 21.3715 272.559 23.4822 271.985 26.319L268.27 44.1163H279.498L283.518 25.8292C285.206 18.1126 282.623 12.3208 275.211 12.3208C273.148 12.3123 271.118 12.821 269.303 13.8004C267.489 14.7798 265.95 16.1985 264.825 17.9269ZM0.0599365 44.1163H11.6603L20.6265 0.973755H9.04305L0.0599365 44.1163ZM34.9792 12.439C42.8141 12.439 50.2945 16.7279 50.1762 26.4371C50.0749 37.0582 42.8479 45.0113 31.8047 45.0113C24.2062 45.0113 16.6079 40.7899 16.7429 31.1313C16.9286 20.7637 24.0543 12.439 34.9792 12.439ZM32.1257 37.4803C37.0731 37.4803 38.8798 30.3039 38.8798 26.0825C38.8798 23.0601 37.9512 20.1051 34.6921 20.1051C29.7954 20.1051 28.1237 27.7036 28.1237 31.6211C28.1237 34.7617 29.0018 37.4803 32.1932 37.4803M24.4933 0.973755L22.8047 9.60227H120.217L121.906 0.973755H24.4933ZM102.842 12.439C110.677 12.439 118.157 16.7279 118.039 26.4371C117.938 37.0582 110.694 45.0113 99.6509 45.0113C92.0523 45.0113 84.4538 40.7899 84.6059 31.1313C84.8423 20.7637 91.9679 12.439 102.842 12.439ZM100.039 37.4803C104.987 37.4803 106.793 30.3039 106.793 26.0825C106.793 23.0601 105.848 20.1051 102.589 20.1051C97.709 20.1051 96.0204 27.7036 96.0204 31.6211C96.0204 34.7617 96.8985 37.4803 100.107 37.4803M125.891 0.973755L124.203 9.60227H135.415L137.103 0.973755H125.891ZM116.908 44.1163H128.137L134.57 13.3509H123.274L116.908 44.1163ZM152.739 45.1463C150.952 45.2732 149.165 44.8997 147.578 44.0676C145.991 43.2354 144.668 41.9776 143.756 40.4353H143.57L140.193 56.0037H128.829L137.947 13.3509H148.619L147.775 17.454C148.889 15.9384 150.333 14.6952 151.997 13.8177C153.661 12.9403 155.502 12.4516 157.383 12.3885C164.137 12.3885 168.105 18.1801 167.987 25.7112C167.835 35.1838 162.921 45.1463 152.671 45.1463H152.739ZM152.3 21.1014C147.961 21.1014 145.293 26.6567 145.225 30.9288C145.225 33.9006 146.272 37.2101 149.835 37.2101C154.478 37.2101 156.386 31.0638 156.437 26.9605C156.437 24.1745 155.627 21.1014 152.3 21.1014ZM217.226 39.2702H217.411L216.432 44.1502H227.102L233.537 13.3846H222.325L218.745 30.574C218.019 34.137 215.823 36.0113 213.055 36.0113C210.285 36.0113 209.676 33.4108 210.234 30.6923L213.865 13.3846H202.653L198.684 32.3809C196.995 40.6548 200.846 45.1126 207.297 45.1126C209.322 45.0928 211.307 44.5393 213.05 43.5076C214.792 42.4758 216.234 41.0025 217.226 39.2364V39.2702ZM277.455 56.1558L279.144 47.5272H145.985L144.296 56.1558H277.455Z" fill="white"/>
<defs>
<linearGradient id="paint0_linear" x1="291" y1="0" x2="291" y2="582" gradientUnits="userSpaceOnUse">
<stop stop-color="#7BCBD4"/>
<stop offset="1" stop-color="#29C6B7"/>
</linearGradient>
</defs>
</svg>


